# xmcd
# Track frame offsets:
# 180
# 7982
# 18343
# 27423
# 38475
# 50686
# 61621
# 69029
# 80456
# 90371
# 100021
# 107740
# 118025
# 126162
# 137164
# 147815
# 157716
# 170992
# 181114
# 190261
#
# Disc length: 2690 seconds
# Revision: 1
# Processed by: cddbd v1.5.2PL0 Copyright (c) Steve Scherf et al.
# Submitted via: VisiTrax 2.11.3.279 - For more info visit www.synapsa.com
#
DISCID=f40a8014
DTITLE=Johnny Cash - Jerry Lee Lewis - Sunday Down South-Sings Hank Williams
DYEAR=1970
DGENRE=Country/Gospel
TTITLE0=Johnny Cash - If The Good Lord's Willing
TTITLE1=Johnny Cash - I Was There When It Happened
TTITLE2=Johnny Cash - Remember Me
TTITLE3=Johnny Cash - Belshazah
TTITLE4=Johnny Cash - Good Night Irene
TTITLE5=Jerry Lee Lewis - Will The Circle Be Un broken
TTITLE6=Jerry Lee Lewis - Old Time Religion
TTITLE7=Jerry Lee Lewis - Carry Me Back To Old Virginia
TTITLE8=Jerry Lee Lewis - When The Saints Go Marching In
TTITLE9=Jerry Lee Lewis - Silver Threads
TTITLE10=Johnny Cash - Hey Good Looking
TTITLE11=Johnny Cash - I Could Never Be Ashamed Of You
TTITLE12=Johnny Cash - I Can't Help It
TTITLE13=Johnny Cash - I Heard That Lonesome Whistle
TTITLE14=Johnny Cash - Cold, Cold, Heart
TTITLE15=Jerry Lee Lewis - Lovesick Blues
TTITLE16=Jerry Lee Lewis - You Win Again
TTITLE17=Jerry Lee Lewis - You Cheating Heart
TTITLE18=Jerry Lee Lewis - Jambalaya
TTITLE19=Jerry Lee Lewis - Settin' The Woods On Fire
EXTD=Sun Entertainment Corporation
EXTT0=
EXTT1=
EXTT2=
EXTT3=
EXTT4=
EXTT5=
EXTT6=
EXTT7=
EXTT8=
EXTT9=
EXTT10=
EXTT11=
EXTT12=
EXTT13=
EXTT14=
EXTT15=
EXTT16=
EXTT17=
EXTT18=
EXTT19=
PLAYORDER=
